<svg xmlns="http://www.w3.org/2000/svg" width="256" height="256"><path fill-opacity=".016" d="M0 128.004v128.004l128.25-.254 128.25-.254.254-127.75L257.008 0H0v128.004m.485.496c0 70.4.119 99.053.265 63.672.146-35.38.146-92.98 0-128C.604 29.153.485 58.1.485 128.5" fill="#1976D2" fill-rule="evenodd"/><path fill-opacity=".657" d="M0 128.008v128.007l62.25-.257 62.25-.258.575-5.5c.316-3.025.369-7.428.116-9.784-.455-4.245-.478-4.268-2.575-2.5L120.5 239.5l2-2.366c1.73-2.047 1.976-3.666 1.824-12-.096-5.299-.688-10.978-1.315-12.621-.627-1.643-1.38-6.818-1.674-11.5-.382-6.09-1.075-9.284-2.434-11.223-2.075-2.958-2.44-4.241-.944-3.316 1.187.733 4.043-4.599 4.043-7.547 0-1.918-.2-2.011-1.711-.799-1.247 1-1.137.552.406-1.65 1.954-2.79 2.828-6.568 2.456-10.621-.198-2.151-3.237-3.284-4.399-1.641-.881 1.245-.635-.69.834-6.558.368-1.467-.006-2.935-1-3.929-1.726-1.726-2.212-5.234-.586-4.229.567.351 1-.49 1-1.941 0-1.407-.338-2.56-.75-2.562-.412-.002-.76-3.714-.771-8.25-.022-8.626-2.091-17.656-4.234-18.481-.69-.266-2.016-2.122-2.946-4.125-.93-2.002-2.281-4.003-3.002-4.444-.874-.536-1.017-1.369-.429-2.5.484-.934.519-2.597.077-3.697-.443-1.1-.865-1.55-.938-1-.074.55-.558-.06-1.077-1.355-.621-1.55-1.471-2.151-2.488-1.761-.885.34-1.285.171-.935-.395.336-.544 1.299-.989 2.14-.989 1.2 0 1.408-.807.967-3.75-.309-2.062-1.067-8.248-1.684-13.746-.618-5.498-1.54-10.776-2.05-11.728C97.901 63.21 91 59.792 91 63.883c0 1.119-.914 2.114-2.25 2.451-2.047.515-2.092.448-.5-.744.963-.721 1.75-2.304 1.75-3.518 0-1.793.397-2.081 2.118-1.534 1.541.489 1.984.302 1.625-.683-.271-.745-.999-1.243-1.618-1.105-1.333.296-1.515-1.391-.235-2.182.489-.302 1.097-2.016 1.351-3.809.729-5.148 3.135-13.195 4.163-13.924.556-.394.013-3.782-1.333-8.314-1.249-4.207-2.043-8.52-1.764-9.585.278-1.065.145-1.936-.295-1.936-.441 0-.442-1.594-.002-3.543.71-3.148.624-3.399-.769-2.25-1.39 1.146-1.432 1.037-.37-.956.767-1.439.959-4.049.535-7.25L92.742 0H0v128.008M103.737 17.745c.139 10.443.639 17.88 1.214 18.072.581.194.63 1.005.121 2.004-.471.924-1.383 4.54-2.026 8.037-1.13 6.146-1.082 6.483 1.451 10.138 2.119 3.058 2.893 5.953 4.044 15.142 1.611 12.854 3.435 22.881 4.432 24.362.37.55.728 2.05.794 3.332.067 1.283 1.294 3.871 2.728 5.751 3.212 4.21 5.366 9.237 5.966 13.919.25 1.954.716 3.976 1.036 4.493.32.518.969 5.406 1.443 10.864.475 5.457 1.554 11.434 2.399 13.282 2.354 5.146 4.661 13.843 4.661 17.573 0 2.514.561 3.598 2.25 4.341 2.054.905 2.011.944-.5.449-4.767-.94-3.159 3.492 1.75 4.823 1.1.299.425.46-1.5.359l-3.5-.183.114 5.724c.063 3.148-.209 5.523-.604 5.279-1.281-.791-2.092 16.153-.919 19.177.601 1.549 1.271 3.83 1.489 5.069 1.814 10.31 2.238 15.714 2.277 29.013.024 8.396.318 15.709.652 16.25.389.629 22.634.985 61.55.985H256V0h-76.25L103.5-.001l.237 17.746M87.02 71.476c-.789.95-.865 1.524-.201 1.524 1.208 0 2.617-1.897 1.924-2.591-.252-.251-1.027.229-1.723 1.067M111.71 114c.288 1.1.937 2 1.442 2 .507 0 .439-.895-.152-2-.589-1.1-1.237-2-1.442-2-.204 0-.135.9.152 2m-36.241 23.5c-.258.825-.718 2.274-1.022 3.22-.304.945-.248 1.414.124 1.042.373-.372 1.441.267 2.375 1.42 1.643 2.029 1.786 2.04 4.376.343 1.669-1.094 2.678-2.657 2.678-4.148 0-2.154-.205-2.268-2.037-1.135-1.121.692-2.324 2.383-2.674 3.758-.633 2.484-.645 2.479-1.988-.805-.743-1.817-1.088-3.73-.767-4.25.321-.52.318-.945-.006-.945-.325 0-.802.675-1.059 1.5M55 160.33c0 .983.418 1.53.929 1.214.51-.315 1.073.321 1.25 1.416.191 1.182.768 1.695 1.424 1.264.732-.481.313-1.556-1.25-3.203-2.002-2.109-2.353-2.212-2.353-.691m61.079 22.253c.048 1.165.285 1.402.604.605.289-.722.253-1.585-.079-1.917-.332-.332-.568.258-.525 1.312m4.031 3.784c-.855 1.03-.814 1.634.164 2.446 1 .829 1.345.515 1.501-1.368.232-2.8-.072-2.997-1.665-1.078M67 246c0 .55.477 1 1.059 1s.781-.45.441-1-.816-1-1.059-1-.441.45-.441 1" fill="#1976D2" fill-rule="evenodd"/><path fill-opacity=".466" d="M0 128.015V256.03l28.396-.062 28.396-.061.403-3.454c.433-3.707-.02-4.173-2.142-2.203-.865.803-1.113.834-.693.085.359-.64.087-1.392-.604-1.671-.691-.278-.243-.598.994-.71 2.054-.186 2.725-.307 5-.899.413-.108-.15-.582-1.25-1.055-1.792-.77-1.722-.867.667-.93 1.466-.038 2.875.492 3.13 1.18.256.688.987-.065 1.625-1.673 1.068-2.692 1.288-2.796 2.777-1.307 1.489 1.489 1.794 1.088 3.867-5.071 2.329-6.919 2.28-9.146-.155-7.125-1.163.965-1.411.623-1.411-1.952 0-1.717-.48-3.122-1.067-3.122-.613 0-.797-.853-.433-2 .364-1.147.18-2-.433-2-.587 0-1.067-.95-1.067-2.111 0-2.068.043-2.062 2.084.25 1.841 2.086 2.011 2.128 1.465.361-.452-1.46.229-1.106 2.523 1.31 1.728 1.82 3.391 3.06 3.696 2.755.585-.585-1.34-7.864-2.851-10.778-.659-1.271-.534-1.577.485-1.186.756.29 1.722 1.961 2.149 3.713 1.018 4.185 1.29 14.706.365 14.134-.396-.245-1.218.978-1.824 2.718-.888 2.547-.809 3.489.402 4.828.985 1.087 1.471 3.541 1.406 7.085-.065 3.551-.325 4.618-.754 3.093-.653-2.322-.66-2.321-2.93.75-2.135 2.887-5.493 4.058-6.582 2.294-.267-.431.706-.768 2.161-.75 1.914.025 3.014-.726 3.98-2.716.734-1.513 1.788-2.75 2.343-2.75 1.42 0 .645-6.26-.835-6.745-.743-.244-1.668 1.39-2.373 4.19-1.363 5.412-2.528 6.435-4.445 3.905-1.344-1.774-1.403-1.763-1.433.261-.026 1.731-.502 2.022-2.638 1.613-3.011-.575-4.356.969-4.379 5.026-.015 2.733.027 2.75 6.816 2.75 6.262 0 6.942-.208 8.168-2.498.736-1.375 1.523-2.313 1.75-2.086.227.227-.089 1.351-.703 2.498C72.93 256 72.93 256 95.515 256c20.86 0 22.513-.128 21.644-1.681-.648-1.158-.509-2.112.448-3.069 1.001-1.001 1.111-1.908.395-3.247-.547-1.022-.723-2.566-.391-3.431.41-1.07.01-1.597-1.254-1.651-1.089-.046-1.331-.29-.586-.59 1.683-.678 4.59-6.331 3.255-6.331-.564 0-1.026-.702-1.026-1.559s.405-1.309.9-1.003c.843.521.764-2.305-.373-13.317-.562-5.445-1.006-5.902-3.521-3.627-1.103.999-2.006 1.329-2.006.734 0-.596 1.237-2.077 2.75-3.291 1.758-1.412 2.299-2.37 1.5-2.656-.688-.246-1.25-1.284-1.25-2.305 0-1.022-.385-2.096-.856-2.387-.471-.291-.628-2.904-.349-5.807.487-5.074.434-5.22-1.394-3.78-1.689 1.331-1.782 1.331-.832-.002.587-.825.812-2.787.5-4.36-.547-2.748-.633-2.788-2.201-1-.897 1.023-1.918 2.804-2.269 3.958-.682 2.245-5.097 4.867-7.648 4.542-.851-.109-2.617.94-3.924 2.331-2.511 2.673-4.027 3.226-4.027 1.47 0-.582.385-.821.855-.531.47.291 1.898-.583 3.174-1.941S99.855 199 100.475 199c2.041 0 6.509-2.478 6.517-3.615.004-.613.911-2.263 2.014-3.665 1.47-1.869 1.67-2.688.75-3.068-.781-.321-.442-.766.895-1.175 1.532-.469 2.267-1.649 2.553-4.099.32-2.74.097-3.324-1.095-2.866-1.18.453-1.139.178.197-1.298 2.075-2.293 2.212-5.214.244-5.214-.798 0-1.886-.778-2.418-1.729-.908-1.621-1.101-1.609-3.093.194-1.425 1.29-1.94 1.44-1.563.457.31-.806 1.495-2.047 2.635-2.759 1.772-1.107 2.287-1.031 3.555.521.815.999 1.197 1.254.849.566-.348-.687-.156-1.25.426-1.25 1.496 0 1.316-3.042-.292-4.921-.743-.869-2.107-3.959-3.033-6.868-1.561-4.91-1.564-5.406-.035-6.935 1.343-1.343 1.535-2.91 1.038-8.516-.334-3.779-1.156-7.858-1.827-9.065-.671-1.207-1.11-4.445-.977-7.195.269-5.549-1.157-9.021-2.713-6.606-.494.767-.928 3.888-.965 6.935-.057 4.82-.428 5.828-2.851 7.765-3.585 2.865-4.329 2.176-1.118-1.034 1.889-1.89 2.525-3.675 2.704-7.589.129-2.815.634-6.172 1.124-7.46.658-1.731.514-2.485-.553-2.895-.794-.304-1.443-1.242-1.443-2.085 0-.842-.824-1.531-1.831-1.531-1.819 0-3.667 2.669-4.501 6.5-.282 1.292-.465.937-.519-1-.091-3.316 2.814-7.5 5.209-7.5 1.345 0 1.372-.468.212-3.75-1.023-2.898-1.807-3.696-3.447-3.512-2.191.246-2.889-1.146-1.123-2.238 1.66-1.026 1.141-2.362-1.621-4.171-2.335-1.53-2.745-1.551-3.75-.193-.663.896-2.573 1.492-4.629 1.445l-3.5-.081-.172 5.219c-.094 2.871-.882 6.234-1.75 7.473-.868 1.239-1.578 3.037-1.578 3.995 0 .959-.9 2.224-2 2.813-2.291 1.226-2.758 7.527-.944 12.73 1.023 2.937 1.174 2.999 4.936 2.044 3.048-.774 4.569-.641 7.097.621 1.77.883 3.958 1.605 4.861 1.605 1.476 0 1.892 2.197 1.179 6.23-.169.955-8.194 5.196-10.129 5.353-.825.066-2.699.188-4.165.269-2.579.143-2.687.395-3.359 7.898-.626 6.979-3.046 15.013-4.181 13.879-.243-.244.293-1.865 1.192-3.604.899-1.738 1.439-4.142 1.201-5.343l-.434-2.182-.732 2.203C72.764 160.99 68 164.774 68 163.09c0-.525.855-1.227 1.901-1.558 1.045-.332 2.178-1.713 2.519-3.068.34-1.355 1.06-2.464 1.599-2.464.54 0 .948-2.588.907-5.75l-.074-5.75-1.852 4c-1.018 2.2-1.885 4.701-1.926 5.559-.041.857-.721 2.432-1.512 3.5-1.421 1.918-1.456 1.917-2.968-.059-1.499-1.96-1.531-1.949-1.553.5-.015 1.581-1.201 3.468-3.227 5.133-2.8 2.301-3.232 3.31-3.432 8-.126 2.952.158 6.942.631 8.867.473 1.925 1.102 5.802 1.397 8.616.675 6.429 1.792 9.372 4.475 11.789 1.163 1.048 2.115 2.317 2.115 2.821s-1.539-.715-3.42-2.71c-2.992-3.172-3.537-3.415-4.361-1.942-.565 1.008-1.196 1.273-1.575.659-.348-.563.023-1.275.824-1.582 1.161-.446 1.346-2.016.913-7.753-.299-3.957-.957-8.282-1.462-9.611-.505-1.329-.919-5.338-.919-8.908 0-6.026-.233-6.713-3.25-9.57-1.82-1.723-2.48-2.812-1.5-2.475.962.332 1.75.167 1.75-.365 0-1.724 2.846-1.027 4.303 1.053 1.957 2.794 4.361 1.582 5.144-2.591.641-3.416 2.741-4.554 4.161-2.256 1.248 2.019 3.62-7.88 2.424-10.115-.568-1.061-1.032-3.335-1.032-5.053 0-2.112-.375-2.893-1.158-2.41-.793.491-.98.037-.593-1.441.31-1.186.156-2.156-.343-2.156-.498 0-.906-.97-.906-2.155 0-2.066.08-2.083 1.93-.408 1.86 1.683 1.911 1.662 1.375-.595-.533-2.248-.496-2.265.932-.421 1.937 2.504 5.018 3.029 4.377.747-.258-.918-.767-4.015-1.131-6.883-.603-4.755-.433-5.427 1.928-7.615 1.424-1.32 2.589-3.084 2.589-3.92 0-.837.626-2.729 1.392-4.204.829-1.598 1.253-4.717 1.05-7.71-.267-3.922.087-5.487 1.608-7.12 1.072-1.151 1.957-3.021 1.965-4.155.008-1.133.7-4.031 1.539-6.439 1.708-4.906 1.341-6.063-1.28-4.032-1.682 1.305-1.686 1.272-.075-.63 1.068-1.26 1.388-2.511.86-3.365-.647-1.046-.997-.866-1.521.784-.374 1.179-1.912 2.78-3.418 3.559-1.507.779-4.4 3.548-6.429 6.153C71.661 88.197 70 89.952 70 89.493c0-.46.788-1.715 1.75-2.789 1.705-1.904 1.669-1.936-1.405-1.27-1.735.376-3.378.319-3.651-.125-.274-.445.787-.856 2.356-.913 2.515-.092 5.348-1.925 12.236-7.915.983-.855 1.516-1.992 1.185-2.528-.692-1.12-6.381-.907-7.106.266-.266.429-2.144.714-4.174.631-3.381-.137-3.439-.185-.691-.577 1.65-.235 3.427-.842 3.95-1.35.522-.508 1.945-.923 3.161-.923 1.229 0 3.332-1.332 4.736-3 1.388-1.65 2.949-3 3.47-3 .52 0 1.262-4.232 1.65-9.405.756-10.081.043-12.981-3.467-14.095-1.101-.349-2.476-1.617-3.056-2.818-.89-1.841-.85-1.946.251-.67.718.832 2.43 2.009 3.805 2.615l2.5 1.102-.161-10.114c-.23-14.409-.104-13.632-2.089-12.96-.962.325-2.799 1.774-4.082 3.218L78.837 25.5l1.667-3.366c.917-1.851 2.529-3.591 3.582-3.867 2.262-.591 2.261-.576.748-10.517L83.654 0h-4.878c-4.634 0-4.951.176-6.348 3.517-1.312 3.142-1.284 4.42.269 11.963 1.456 7.077 1.541 9.182.521 12.997-.67 2.503-1.225 5.783-1.233 7.287-.014 2.78-2.2 9.901-4.166 13.574-.595 1.111-1.45 4.302-1.901 7.091l-.819 5.071.282-5c.155-2.75.975-6.575 1.821-8.5 2.659-6.047 4.246-13.185 5.336-24 .194-1.925-.344-6.347-1.195-9.826-1.163-4.753-1.3-7.301-.552-10.25L71.787 0H0v128.015M112.167 1.666c-.556.994-.577 2.906-.05 4.743.486 1.693.883 4.443.883 6.112 0 1.669.656 3.971 1.458 5.115 1.281 1.829 1.262 3.159-.158 10.973-.888 4.89-1.907 9.116-2.264 9.391-.356.275-.767 4-.911 8.277-.24 7.113.558 11.879 2.885 17.223 1.336 3.068 2.99 12.154 2.99 16.424 0 2.104.275 5.202.612 6.884.562 2.81.825 2.982 3.25 2.119l2.638-.938-2.363 2.007c-2.247 1.909-2.29 2.167-.868 5.256.822 1.786 2.066 5.037 2.765 7.224 1.578 4.938 4.427 9.73 5.279 8.878.351-.351 1.325-.07 2.163.626 1.29 1.071 1.542.901 1.64-1.108.074-1.509.275-1.774.553-.729.261.983 1.133 1.46 2.173 1.188 1.004-.263 2.563.521 3.697 1.857l1.961 2.312-2.345-1.991-2.344-1.99-2.379 2.99c-1.308 1.645-3.099 3.813-3.981 4.817-1.492 1.7-1.458 1.803.496 1.5 1.958-.304 2.125.217 2.514 7.84.462 9.059 2.015 16.037 4.088 18.364.935 1.05 1.414 4.719 1.523 11.675.121 7.701.463 10.027 1.42 9.66.736-.283 1.529.582 1.904 2.075.796 3.175 1.681 3.208 4.718.18 1.942-1.938 3.223-2.321 6.882-2.058 3.505.252 5.048-.16 6.993-1.869l2.497-2.193-1.833 2.178c-1.26 1.498-1.608 2.89-1.111 4.454.664 2.093.593 2.146-.891.661-2.319-2.318-9.999-2.066-11.526.378-.909 1.456-.826 2.506.383 4.844 1.708 3.303 2.425 3.58 4.494 1.735 1.192-1.063 1.204-.989.077.5-1.941 2.566-3.824 2.144-5.579-1.25-.853-1.65-1.99-3-2.526-3-1.484 0-1.173 1.155.925 3.436 1.045 1.135 2.147 4.089 2.45 6.564.302 2.475.572 4.56.6 4.633.028.074 1.063.468 2.301.877l2.25.744-2.348.455c-1.526.296-3.188-.334-4.75-1.801-1.321-1.241-2.402-1.853-2.402-1.359 0 .493-1.429-.666-3.176-2.576l-3.176-3.473-.811 3c-1.11 4.101-.126 15.703 1.412 16.654.685.423 2.676.587 4.422.364 2.164-.277 3.599.133 4.503 1.288 1.195 1.527 1.152 1.557-.443.306-1.531-1.201-2.035-1.147-3.75.405-1.089.986-1.981 2.373-1.981 3.081 0 .709-1 1.989-2.223 2.845L135.555 212h2.222c2.026 0 2.234.51 2.341 5.75.066 3.162.045 6.315-.044 7.005-.09.69.981 4.429 2.381 8.309 1.4 3.88 2.545 8.309 2.545 9.841s.855 3.559 1.901 4.505c1.046.947 2.191 3.266 2.545 5.155l.645 3.435H256V0h-71.45c-65.635 0-71.527.136-72.383 1.666M77.048 33.738c1.27 1.78 2.543 3.004 2.828 2.719.285-.285-.755-1.741-2.31-3.237l-2.828-2.72 2.31 3.238M89.195 37.5c.02 1.65.244 2.204.498 1.231.254-.973.237-2.323-.037-3-.274-.677-.481.119-.461 1.769M62.498 65.004c-1.211 2.342-2.161 3.056-3.574 2.686-1.058-.276-1.924-.095-1.924.404 0 .498.75.906 1.667.906 1.651 0 1.012 1.385-.75 1.625-.504.069-1.367.181-1.917.25s-1 .63-1 1.247c0 .776.464.738 1.5-.122.825-.685 1.5-.91 1.5-.5 0 .41.586.259 1.302-.336.716-.594 2.179-.939 3.25-.766 1.071.173 1.386.122.698-.115-1.695-.583-1.571-2.379.352-5.125.881-1.258 1.364-2.525 1.074-2.816-.291-.29-1.271.908-2.178 2.662m21.763 3.135c-.607.607-.838 1.799-.513 2.647.42 1.095.208 1.305-.733.724-.881-.545-1.085-.433-.61.335 1.193 1.931 2.334 1.302 2.89-1.595.623-3.244.451-3.596-1.034-2.111m5.923 1.42c-.67 1.618-1.382 5.265-1.585 8.107-.202 2.841-1.094 6.203-1.983 7.472C85.727 86.407 85 88.605 85 90.023c0 1.417-.469 3.046-1.042 3.619-.724.724-.558 1.445.541 2.358 1.334 1.107 2.043.975 4.488-.832 1.771-1.31 3.578-1.888 4.632-1.484 1.348.517 1.58.277 1.055-1.092-.371-.966-.674-2.134-.674-2.597 0-.463-1.188-2.253-2.64-3.979-1.975-2.347-2.353-3.423-1.5-4.276.853-.853 1.14-.833 1.14.08 0 .671 1.125 3.002 2.5 5.18s2.5 4.558 2.5 5.289c0 .731.589 2.135 1.31 3.12 1.904 2.604.26-13.407-1.783-17.357-.84-1.624-1.547-3.538-1.572-4.252-.025-.715-.61-2.623-1.3-4.241l-1.254-2.94-1.217 2.94M49.405 74.25L47.5 76.5l2.25-1.905c1.237-1.048 2.25-2.06 2.25-2.25 0-.8-.805-.209-2.595 1.905M49.1 87.295c-1.265 2.107-1.243 2.128.479.479.991-.95 1.587-1.942 1.324-2.205-.263-.263-1.074.514-1.803 1.726m7.979.288c.048 1.165.285 1.402.604.605.289-.722.253-1.585-.079-1.917-.332-.332-.568.258-.525 1.312m25 0c.048 1.165.285 1.402.604.605.289-.722.253-1.585-.079-1.917-.332-.332-.568.258-.525 1.312M45.261 92.25c-1.155 1.237-3.148 3.041-4.43 4.009-1.448 1.092-.9.954 1.445-.364 2.077-1.168 4.23-2.972 4.785-4.009 1.337-2.497.762-2.381-1.8.364m12.818-.667c.048 1.165.285 1.402.604.605.289-.722.253-1.585-.079-1.917-.332-.332-.568.258-.525 1.312m1.116 4.917c.02 1.65.244 2.204.498 1.231.254-.973.237-2.323-.037-3-.274-.677-.481.119-.461 1.769M77 98c-2.327.745-2.349.808-.309.9 1.205.055 2.469-.35 2.809-.9.34-.55.479-.955.309-.9A2527 2527 0 0177 98m-39.416 2.641c-.527 1.373-.38 1.435.893.378 1.735-1.44 1.916-2.019.63-2.019-.491 0-1.176.739-1.523 1.641M59 102.066c0 .586.451 1.909 1.003 2.939.632 1.181.649 2.092.047 2.464-.526.325.709 2.116 2.744 3.981 4.31 3.95 5.745 3.799 2.004-.21-1.406-1.507-3.096-4.427-3.755-6.49-1.172-3.668-2.043-4.812-2.043-2.684M87.232 104c0 1.925.206 2.713.457 1.75.252-.963.252-2.537 0-3.5-.251-.963-.457-.175-.457 1.75m45.593-.326c.426 2.093.678 2.345.969.97.217-1.021-.043-2.293-.576-2.826-.626-.626-.766.031-.393 1.856m-5.219 10.91c-.373.973-.15 1.431.581 1.187 1.495-.498 2.318-2.771 1.003-2.771-.537 0-1.249.713-1.584 1.584m-61.212 7.115c.668 5.679 1.153 7.088 2.111 6.13.277-.278.003-1.943-.61-3.702-.613-1.758-.903-4.306-.644-5.662.26-1.356.022-2.465-.527-2.465-.627 0-.75 2.123-.33 5.699m38.149 13.232c-.317.512-.118 1.213.441 1.559.559.345 1.016-.074 1.016-.931 0-1.757-.6-2.015-1.457-.628M71.158 144c0 1.375.227 1.938.504 1.25.278-.687.278-1.812 0-2.5-.277-.687-.504-.125-.504 1.25m-22.129 18.961c-.809.512-1.211 1.191-.893 1.509.319.318 1.148-.108 1.844-.946 1.443-1.738 1.166-1.902-.951-.563m16.843 4.789c-1.243 1.586-1.208 1.621.378.378.963-.755 1.75-1.543 1.75-1.75 0-.823-.821-.294-2.128 1.372m-17.308 2.543c.376.986.935 1.541 1.243 1.233.308-.307.001-1.114-.683-1.793-.988-.98-1.102-.865-.56.56M71.336 176c0 4.125.177 5.813.392 3.75.216-2.062.216-5.437 0-7.5-.215-2.062-.392-.375-.392 3.75M138 172.059c0 .582.45.781 1 .441s1-.816 1-1.059-.45-.441-1-.441-1 .477-1 1.059m-87.921 1.678c-.148 2.31-5.568 8.995-8.079 9.962-1.423.549-3.001 2.328-3.663 4.132-1.459 3.974-.869 4.099 1.126.24.833-1.611 2.405-3.212 3.494-3.557 2.344-.744 8.337-9.248 7.667-10.88-.319-.776-.491-.744-.545.103m89.102 1.151c-1.495.924.376 7.156 2.535 8.443.767.457 1.912 2.032 2.543 3.5l1.148 2.669.365-3.321c.231-2.099-.304-4.263-1.453-5.882-1.001-1.409-2.294-3.37-2.876-4.358-.618-1.051-1.556-1.487-2.262-1.051M153 176.079c0 .776 4.715.539 5.533-.278.257-.257-.883-.468-2.533-.468s-3 .336-3 .746m-17.295 1.59c-.353.57.005 1.89.795 2.934 1.545 2.041 1.827 1.09.602-2.037-.437-1.115-1.028-1.495-1.397-.897M141 185c0 .55.477 1 1.059 1s.781-.45.441-1-.816-1-1.059-1-.441.45-.441 1m-25.805 7.5c.02 1.65.244 2.204.498 1.231.254-.973.237-2.323-.037-3-.274-.677-.481.119-.461 1.769m-83.583.319c-.279.451.82.624 2.441.387 1.621-.238 2.947-.607 2.947-.819 0-.762-4.893-.37-5.388.432m19.977 5.037c-.291.47.583.643 1.941.383 1.359-.26 2.47-.645 2.47-.856 0-.773-3.899-.356-4.411.473M116.158 204c0 1.375.227 1.938.504 1.25.278-.687.278-1.812 0-2.5-.277-.687-.504-.125-.504 1.25M136 205.622c0 1.329.271 1.398 1.5.378.825-.685 1.5-1.415 1.5-1.622 0-.208-.675-.378-1.5-.378s-1.5.73-1.5 1.622m-69.882 1.503c-.174 3.865.993 8.875 2.066 8.875.514 0 .642-.473.285-1.05-.357-.578-1.006-3.165-1.441-5.75-.458-2.714-.842-3.591-.91-2.075m-16.657 43.918c-1.519 1.678-1.56 1.932-.232 1.423.889-.341 1.862-1.261 2.162-2.043.747-1.947.248-1.787-1.93.62" fill="#1976D2" fill-rule="evenodd"/><path fill-opacity=".391" d="M0 127.928V256h22.5c17.325 0 22.504-.287 22.515-1.25.011-.833.339-.75.985.25.828 1.282.972 1.246.985-.25.018-2.073 2.782-5.02 6.698-7.143 1.549-.84 2.228-1.545 1.508-1.567-.72-.022-1.031-.49-.691-1.04.34-.55.141-1-.441-1-.584 0-1.059-1.963-1.059-4.378 0-4.685-1.706-7.056-4.348-6.042-1.785.685-5.098-2.05-4.214-3.479.31-.503-.336-.679-1.437-.391-1.306.342-2.001.031-2.001-.894 0-2.392-2.428-6.8-3.75-6.808-1.768-.011-1.559-3.676.25-4.37 1.744-.669 2.042-3.638.365-3.638-.625 0-2.153-1.097-3.395-2.438-1.243-1.341-2.532-2.166-2.865-1.834-1.327 1.327-.502-3.971 1.014-6.513l1.618-2.715-2.096 2.5c-1.406 1.676-2.104 3.92-2.119 6.809-.013 2.619-.415 4.066-1.024 3.69-.551-.341-1.505.645-2.119 2.191-.65 1.634-1.316 2.273-1.592 1.528-.261-.705.219-2.341 1.067-3.635.848-1.295 1.651-4.457 1.784-7.027.133-2.57.676-4.941 1.206-5.269.574-.354.64-.027.164.808-.626 1.098-.523 1.148.472.228.8-.739 1.022-2.177.598-3.868-.371-1.48-.952-2.415-1.29-2.077-.338.338-1.392-.664-2.342-2.226-1.271-2.09-2.547-2.865-4.824-2.929-3.451-.099-5.122-.854-5.122-2.317 0-.607.749-.576 1.979.083 1.089.583 3.114.775 4.5.427 1.616-.406 2.521-.214 2.521.535 0 .642.52.846 1.155.454.634-.393.889-.286.565.238-.323.524-.16 1.606.364 2.405.785 1.198 1.384.964 3.421-1.339 1.483-1.676 2.325-3.674 2.108-5-.199-1.215-.008-2.659.423-3.209 1.357-1.728 2.279-8.5 1.159-8.5-.566 0-1.214.558-1.442 1.241-.305.915-.831.824-2.002-.347-1.451-1.451-1.415-1.738.424-3.312 1.108-.948 2.669-1.472 3.471-1.164.908.348 1.197.137.767-.559-.405-.656-.153-.939.608-.685 1.563.521 5.754-3.186 7.578-6.703.724-1.395.886-2.27.359-1.945-.527.326-.958-.387-.958-1.584 0-1.615-.471-2.052-1.828-1.697-1.565.409-1.859-.221-2.049-4.384-.22-4.82 1.444-6.932 2.057-2.611.247 1.738 1.078 2.323 3.653 2.57 3.217.308 3.321.206 3-2.942-.202-1.981-1.609-4.615-3.583-6.71-1.787-1.896-3.302-4.397-3.366-5.558-.093-1.689-.207-1.761-.573-.36-.252.963-.875 1.75-1.384 1.75-.51 0-.927-4.698-.927-10.441s-.43-10.707-.956-11.032c-.526-.325-.703-1.252-.393-2.059.309-.807.065-1.468-.544-1.468-2.123 0-.398-6.197 2.265-8.134.479-.349.65-1.249.38-2-.271-.751.101-2.829.827-4.616 1.835-4.521.878-4.066-1.579.75-1.54 3.018-2.64 4-4.484 4-2.242 0-2.436.37-2.353 4.495.05 2.472-.393 5.077-.983 5.788-.591.712-1.184 3.161-1.319 5.442-.134 2.281-.71 4.063-1.279 3.961-.569-.102-1.183.78-1.364 1.96-.181 1.18-1.205 2.937-2.274 3.905-2.537 2.295-2.454 1.705.556-3.955 1.375-2.586 2.5-5.973 2.5-7.526 0-1.554.675-3.385 1.5-4.07.825-.685 1.5-2.246 1.5-3.469 0-3.158-5.983-8.997-9.409-9.181-1.535-.083-3.185-.544-3.665-1.024-.498-.498.899-.705 3.251-.481 2.896.277 4.802 1.177 6.4 3.024 2.027 2.342 2.351 2.439 2.957.881.383-.986 1.719-1.75 3.06-1.75 1.941 0 3.021-1.271 5.846-6.881 3.898-7.741 6.192-10.474 8.157-9.72 2.088.801 2.438-.777.852-3.835C47.652 81.028 47 78.888 47 77.809 47 75.216 52.292 70 54.923 70c1.142 0 1.964-.552 1.827-1.226-.138-.675.728-1.377 1.924-1.56 3.098-.475 5.466-4.65 6.311-11.124.4-3.074 1.102-6.49 1.559-7.59.766-1.845.685-1.884-1.049-.5-1.093.873-1.565.977-1.128.25.413-.687.305-1.25-.241-1.25-.545 0-1.27-.877-1.61-1.949-.343-1.082-1.208-1.723-1.945-1.44-1.65.633-3.011-6.7-2.712-14.611.194-5.103.098-5.36-1.325-3.559-1.342 1.698-1.534 1.73-1.534.25 0-.93-.675-1.747-1.5-1.816-2.356-.196-2.84-.357-5.5-1.829-1.375-.761-2.688-1.42-2.917-1.465-.23-.045-.515-1.319-.634-2.831-.221-2.806.978-3.758 1.889-1.5.277.688.54.211.583-1.059.043-1.27-.344-2.048-.861-1.728-.517.319-2.429-.327-4.25-1.437-1.82-1.11-4.008-2.02-4.861-2.022-2.534-.006-6.933-2.405-6.941-3.785-.004-.705.667-1.541 1.492-1.857.825-.317 1.5-1.004 1.5-1.528s-.412-.698-.915-.387c-.503.311-1.102 0-1.331-.691C30.45.841 26.219.413 15.168.178L0-.144v128.072M170.315 1.007c-1.201.484-2.7 1.844-3.331 3.022-.63 1.178-1.373 1.916-1.65 1.639-.953-.954-4.334 2.78-4.349 4.804-.013 1.676-.184 1.767-.985.528-.862-1.333-.984-1.333-1.103 0-.074.825-.081 1.837-.015 2.25.065.412-.38.75-.988.75-.934 0-4.034 2.172-8.394 5.881-.55.468-1.662 1.811-2.471 2.985-1.698 2.464-4.029 2.831-4.029.634 0-.825-.45-1.5-1-1.5s-1 1.65-1 3.667c0 2.016-.296 3.37-.658 3.008-1.327-1.327-3.342 1.664-3.342 4.961 0 1.865-.562 4.312-1.25 5.438-1.029 1.686-.985 2.258.25 3.237 1.059.839 1.327 2.218.91 4.689-.829 4.924-1.993 8-3.027 8-.485 0-.883.439-.883.975 0 .55 1.308.713 3 .375 1.65-.33 3-.341 3-.024 0 2.556-2.484 11.328-3.377 11.924-.713.476-.301.975 1.127 1.367 1.238.339 2.276.901 2.307 1.25.904 9.975 1.872 12.481 4.438 11.497.742-.285 2.313-.002 3.491.629 1.707.913 1.904 1.435.967 2.564-.695.837-.898 2.526-.496 4.128.533 2.124.879 2.398 1.596 1.263.791-1.25.916-1.243.914.052-.001.825-1.119 2.56-2.484 3.855-2.382 2.259-2.483 2.273-2.483.333 0-1.112.563-2.248 1.25-2.526.983-.397.978-.521-.025-.583-1.779-.11-3.662 5.033-2.178 5.95.619.383.974 1.77.789 3.083-.249 1.773.115 2.352 1.414 2.249.963-.076 1.75.261 1.75.75s.705.889 1.567.889c1.147 0 1.398.604.935 2.25-.481 1.71-.39 1.896.379.778.874-1.272 1.098-1.245 1.654.202.353.921.385 2.091.07 2.6-.315.51.826 1.206 2.536 1.548 5.485 1.097 7.689.734 8.359-1.378.98-3.087 3.322-2.521 2.715.656-.316 1.652.038 3.07.935 3.75 1.584 1.2 2.228 12.594.712 12.594-.474 0-.862 1.125-.862 2.5s.45 2.5 1 2.5 1 .9 1 2c0 1.146.667 2 1.561 2 1.284 0 1.442.8.887 4.5-.568 3.783-.413 4.5.97 4.5.905 0 1.909.688 2.232 1.53.37.965 1.281 1.309 2.468.932 1.428-.453 1.882-.098 1.882 1.471 0 1.634.634 2.067 3.025 2.067 2.61 0 3.116.446 3.69 3.25.649 3.174.681 3.191 1.375.75.576-2.028.729-1.698.81 1.75.055 2.338-.35 4.25-.9 4.25s-1 .681-1 1.514c0 .832-.562 2.434-1.25 3.56-1.055 1.729-.968 2.257.563 3.393 2.233 1.657 3.666 12.31 1.81 13.457-.892.551-.906 1.991-.057 5.947.953 4.446 1.339 5.037 2.603 3.989 1.183-.982 1.654-.956 2.325.13.464.751 2.9 1.483 5.428 1.632 2.522.149 5.584.97 6.805 1.824 1.22.855 3.002 1.554 3.96 1.554.959 0 2.224.9 2.813 2s1.703 2 2.475 2c.929 0 1.317.932 1.146 2.75-.142 1.512.56 3.944 1.56 5.404 2.175 3.174 2.339 5.709.417 6.447-.771.295-1.712 2.193-2.091 4.216-.38 2.023-1.184 3.984-1.788 4.357-.693.428-1.029 4.118-.911 10.002.184 9.238 1.597 15.31 3.315 14.248.49-.303 1.148.119 1.462.938.315.819 2.334 1.786 4.488 2.15 2.154.364 4.17 1.073 4.481 1.575.31.502 7.287.913 15.505.913H256V0h-66v3.031c0 1.822-.621 3.27-1.557 3.629-.857.329-1.321 1.215-1.032 1.969.299.778-.109 1.371-.942 1.371-1.342 0-1.861-1.421-1.738-4.75.026-.687-.916-1.279-2.092-1.313-2.111-.063-2.11-.075.111-.968C183.988 2.471 185 1.6 185 1.032c0-1.258-11.575-1.278-14.685-.025m6.144 19.06c-.363.586-.419 1.306-.126 1.6.717.716 2.667-.546 2.667-1.726 0-1.278-1.726-1.193-2.541.126m-3.38 6.683C173.036 28.538 172.55 30 172 30c-1.266 0-1.317 3.686-.061 4.462.516.319 1.402-.217 1.969-1.191.806-1.384 1.041-1.443 1.077-.271.041 1.333.153 1.333 1.015 0 1.501-2.322 1.222-7-.417-7-.779 0-1.643-.562-1.921-1.25-.277-.687-.54.212-.583 2M59 30c0 2.2.45 4 1 4s1-1.8 1-4-.45-4-1-4-1 1.8-1 4m98.336 8.567c-.834 2.172 1.282 4.215 2.797 2.7 1.28-1.28.487-4.267-1.133-4.267-.585 0-1.333.705-1.664 1.567m-24.257 2.016c.048 1.165.285 1.402.604.605.289-.722.253-1.585-.079-1.917-.332-.332-.568.258-.525 1.312m-65.472 9.999c-.334.87-.607 3.236-.607 5.258s-1.136 5.81-2.524 8.418C62.525 67.923 62.282 69 63.408 69c.802 0 1.757.944 2.123 2.098.541 1.705 1.301 2.024 4.052 1.703 1.862-.218 3.582.076 3.822.652.249.596.471.507.516-.207.043-.689-.828-2.939-1.936-5-1.798-3.34-1.84-3.783-.394-4.09 2.259-.479 1.079-5.998-1.698-7.943-1.598-1.12-1.957-2.145-1.518-4.34.624-3.12.204-3.825-.768-1.291m1.472 3.001c.048 1.165.285 1.402.604.605.289-.722.253-1.585-.079-1.917-.332-.332-.568.258-.525 1.312m6.464 16.348c-.665 1.076 1.292 2.567 2.19 1.669.33-.33.049-.6-.625-.6s-.948-.45-.608-1c.34-.55.393-1 .118-1s-.759.419-1.075.931m-16.989 3.71c-1.036 4.127.392 13.317 1.974 12.71.724-.278 2.187-.039 3.252.531 1.7.91 1.902.727 1.657-1.507-.154-1.399-1.102-3.471-2.108-4.605-1.801-2.03-1.794-2.043.477-.85 1.269.666 2.526 1.781 2.794 2.479.267.697 1.122 1.268 1.899 1.268.777 0 1.134-.452.793-1.004-.369-.596.05-.746 1.032-.369.909.349 1.586.313 1.505-.08-.302-1.469 1.415-4.181 2.301-3.634.506.313.855.198.776-.256-.377-2.175.249-3.331 1.844-3.403 1.1-.05 1.273-.27.466-.594-.706-.284-1.895-.009-2.642.612-1.905 1.581-7.742.402-9.734-1.966-2.409-2.863-5.482-2.537-6.286.668m-7.326.161c-2.639 2.289-2.807 4.73-.626 9.103 1.498 3.003 1.482 3.354-.25 5.403L48.5 90.5l2.152-1.816c1.184-.999 2.984-1.674 4-1.5 1.652.282 1.873-.52 2.085-7.545.199-6.613.015-7.678-1.153-6.709-1.001.831-1.493.844-1.759.046-.227-.681-1.225-.364-2.597.826m-8.787 19.753c-1.864 1.494-1.852 1.512.309.465 1.237-.6 2.25-1.3 2.25-1.555 0-.765-.519-.544-2.559 1.09m41.346 63.266c-1.238.491-1.451 1.096-.766 2.179 1.593 2.519 1.084 3.595-.578 1.223-2.249-3.212-5.036-2.829-6.325.868-.885 2.538-.723 3.823.902 7.187 1.089 2.254 1.982 4.576 1.985 5.16.002.584 1.364 2.513 3.027 4.287 1.662 1.773 3.064 3.573 3.115 4 .051.426.423 1.675.826 2.775 1.598 4.355 2.037 7.5 1.046 7.5-.56 0-1.019-.879-1.019-1.953 0-2.815-1.961-6.909-5.718-11.941-1.805-2.416-3.282-4.904-3.282-5.527 0-.624-.787-2.247-1.75-3.606-1.732-2.447-1.756-2.379-2.313 6.527-.365 5.826-.188 9.291.5 9.826.732.569.674.984-.187 1.333-2.721 1.104-1.109 8.341 1.857 8.341 1.041 0 1.893.357 1.893.793 0 .955 7.734 3.14 8.478 2.396.287-.287.522-1.572.522-2.856 0-1.365.598-2.333 1.441-2.333 1.921 0 2.902 1.708 1.315 2.29-.936.343-.969.767-.128 1.663 1.45 1.546 6.955.962 6.622-.703-.137-.687.37-1.25 1.128-1.25.757 0 1.938-.676 2.624-1.503 1.505-1.813 1.947-14.407.498-14.164-.55.092-1-.733-1-1.833s-1.034-3.125-2.298-4.5c-1.421-1.546-2.141-3.358-1.888-4.75.26-1.432-.086-2.25-.953-2.25-.748 0-1.361-.45-1.361-1s-.69-1-1.532-1c-.843 0-1.968-.9-2.5-2-.533-1.1-1.306-2-1.718-2-.412 0-.643-.9-.512-2s.131-1.968 0-1.93c-.131.039-1.009.377-1.951.751m-37.28 2.168c-.35.566.051.734.941.393 1.732-.665 2.049-1.382.611-1.382-.518 0-1.216.445-1.552.989m24.193 5.672c.28.73.912 1.079 1.405.774 1.369-.846 1.065-2.102-.51-2.102-.772 0-1.175.598-.895 1.328m-5.136 1.046c-.542 1.425-.428 1.54.56.56.684-.679.991-1.486.683-1.793-.308-.308-.867.247-1.243 1.233m1.008 3.441c-1.023 1.731-1.401 2.865-.841 2.518.587-.363 1.019.421 1.019 1.849 0 2.459 1.796 5.485 3.255 5.485.418 0 .725-2.427.683-5.394-.063-4.445-.35-5.292-1.632-4.813-1.343.502-1.368.35-.184-1.106.755-.928.965-1.687.466-1.687-.499 0-1.744 1.417-2.766 3.148m-34.493 26.435c.048 1.165.285 1.402.604.605.289-.722.253-1.585-.079-1.917-.332-.332-.568.258-.525 1.312M28 199c0 .55.477 1 1.059 1s.781-.45.441-1-.816-1-1.059-1-.441.45-.441 1m58.63 27.522c-.346.9-.397 2.839-.114 4.307.434 2.25.366 2.356-.43.671-1.478-3.127-1.245-.137.282 3.628.752 1.855 1.276 4.404 1.164 5.666-.138 1.554.227 2.129 1.132 1.781.735-.282 1.336-.09 1.336.425s.675.678 1.5.362c.825-.317 1.5-1.353 1.5-2.302 0-.95.313-2.04.696-2.422 1.287-1.288 1.118-3.495-.31-4.044-1.056-.405-1.254-1.57-.774-4.569.518-3.242.343-4.025-.902-4.025-.851 0-2.2-.251-2.999-.557-.815-.313-1.729.161-2.081 1.079M82 240c-2.306 2.306-2.638 5-.617 5 .761 0 1.613 1.238 1.894 2.75l.51 2.75-1.515-2.25c-2.325-3.451-5.006-2.875-6.165 1.325-1.689 6.117-1.161 6.425 11 6.425 5.991 0 10.893-.26 10.893-.577 0-1.247-5.934-6.423-7.364-6.423-.835 0-1.839-.52-2.231-1.155-.44-.711-.275-.883.429-.448.748.463.93.151.526-.903-.34-.885-1.235-1.372-1.989-1.083-1.374.527-1.746-.705-1.559-5.161.116-2.782-1.194-2.868-3.812-.25m-22.541 9.067c-.363.586-.445 1.281-.183 1.543s.743-.218 1.069-1.067c.676-1.762.1-2.072-.886-.476m-8.804 2.762c-2.467 2.726-2.03 3.737 1.728 3.99 3.072.207 3.424-.053 3.831-2.827.308-2.099.126-2.732-.583-2.023-1.322 1.322-2.943 1.346-2.131.031 1.065-1.723-1.109-1.089-2.845.829m21.271-1.579c-.552 1.858-.838 4.996-.417 4.575.718-.718 1.513-4.825.934-4.825-.244 0-.476.113-.517.25" fill="#1976D2" fill-rule="evenodd"/></svg>